# This file uses centimeters as units for non-parametric coordinates.

mtllib back.mtl
g default
v -12.023164 -6.314797 -7.304899
v 4.494693 -6.314797 -6.379026
v -12.023164 7.212210 -7.304899
v 4.494693 7.212210 -6.379026
v -11.976521 7.212210 -8.137024
v 4.541336 7.212210 -7.211150
v -11.976521 -6.314797 -8.137024
v 4.541336 -6.314797 -7.211150
vt 0.005685 0.009915
vt 0.994315 0.009915
vt 0.994315 0.998546
vt 0.005685 0.998546
vt 0.994315 1.987176
vt 0.005685 1.987176
vt 0.994315 2.975807
vt 0.005685 2.975807
vt 0.994315 3.964438
vt 0.005685 3.964438
vt 1.982946 0.009915
vt 1.982946 0.998546
vt -0.982946 0.009915
vt -0.982946 0.998546
vn -0.055965 0.000000 0.998433
vn -0.055965 0.000000 0.998433
vn -0.055965 0.000000 0.998433
vn -0.055965 0.000000 0.998433
vn 0.000000 1.000000 0.000000
vn 0.000000 1.000000 0.000000
vn 0.000000 1.000000 0.000000
vn 0.000000 1.000000 0.000000
vn 0.055965 0.000000 -0.998433
vn 0.055965 0.000000 -0.998433
vn 0.055965 0.000000 -0.998433
vn 0.055965 0.000000 -0.998433
vn 0.000000 -1.000000 0.000000
vn 0.000000 -1.000000 0.000000
vn 0.000000 -1.000000 0.000000
vn 0.000000 -1.000000 0.000000
vn 0.998433 0.000000 0.055965
vn 0.998433 0.000000 0.055965
vn 0.998433 0.000000 0.055965
vn 0.998433 0.000000 0.055965
vn -0.998433 0.000000 -0.055965
vn -0.998433 0.000000 -0.055965
vn -0.998433 0.000000 -0.055965
vn -0.998433 0.000000 -0.055965
s off
g background:pCube1
usemtl aiStandardSurface1SG
f 1/1/1 2/2/2 4/3/3 3/4/4
f 3/4/5 4/3/6 6/5/7 5/6/8
f 5/6/9 6/5/10 8/7/11 7/8/12
f 7/8/13 8/7/14 2/9/15 1/10/16
f 2/2/17 8/11/18 6/12/19 4/3/20
f 7/13/21 1/1/22 3/4/23 5/14/24
